<svg xmlns="http://www.w3.org/2000/svg" width="128" height="128" viewBox="0 0 128 128">
  <defs><linearGradient id="g" x1="0" y1="0" x2="1" y2="1"><stop offset="0" stop-color="#86d4ff"/><stop offset="1" stop-color="#3296ff"/></linearGradient></defs>
  <rect x="8" y="8" width="112" height="112" rx="26" fill="url(#g)"/>
  <path d="M94 48C91 49 88 50 85 50C88 48 90 45 91 42C88 44 84 45 81 46C78 43 74 41 70 41C61 41 54 48 54 57C54 58 54 60 55 61C42 61 32 54 24 44C23 47 22 49 22 52C22 58 25 64 30 67C27 67 24 66 22 64V65C22 73 28 80 36 82C33 83 30 83 27 82C29 89 36 94 44 95C38 100 31 103 23 103C21 103 19 103 18 102C26 107 35 110 45 110C70 110 84 89 84 70C84 69 84 68 84 67C87 65 90 62 92 58L94 48Z" fill="#fff"/>
</svg>
