<svg xmlns="http://www.w3.org/2000/svg" width="128" height="128" viewBox="0 0 128 128">
  <defs><linearGradient id="g" x1="0" y1="0" x2="1" y2="1"><stop offset="0" stop-color="#ff8cd3"/><stop offset="1" stop-color="#a05bff"/></linearGradient></defs>
  <rect x="8" y="8" width="112" height="112" rx="26" fill="url(#g)"/>
  <path d="M76 35V75C76 82 70 88 63 88C57 88 52 84 52 79C52 73 57 69 63 69C66 69 69 70 71 72V44L88 40V68C88 75 82 81 75 81C69 81 64 77 64 72C64 66 69 62 75 62C78 62 81 63 83 65V35H76Z" fill="#fff"/>
</svg>
