<svg width="24" height="24" viewBox="0 0 24 24" fill="none" xmlns="http://www.w3.org/2000/svg">
  <path d="M12 6.5C9.79086 6.5 8 8.29086 8 10.5V12.4C8 13.2964 7.71003 14.1687 7.17384 14.887L6.5 15.79C6.00561 16.4525 6.47833 17.4 7.30394 17.4H16.6961C17.5217 17.4 17.9944 16.4525 17.5 15.79L16.8262 14.887C16.29 14.1687 16 13.2964 16 12.4V10.5C16 8.29086 14.2091 6.5 12 6.5Z" stroke="#FF453A" stroke-width="1.8" stroke-linejoin="round"/>
  <path d="M10.4 18C10.6867 18.6124 11.3085 19.0364 12 19.0364C12.6915 19.0364 13.3133 18.6124 13.6 18" stroke="#FF453A" stroke-width="1.8" stroke-linecap="round"/>
</svg>
