<svg width="24" height="24" viewBox="0 0 24 24" fill="none" xmlns="http://www.w3.org/2000/svg">
  <path d="M12 20C16.4183 20 20 16.6421 20 12.5C20 8.35786 16.4183 5 12 5C7.58172 5 4 8.35786 4 12.5C4 16.6421 7.58172 20 12 20Z" stroke="#0A84FF" stroke-width="1.8"/>
  <circle cx="9" cy="10" r="1.2" fill="#0A84FF"/>
  <circle cx="13" cy="8.8" r="1.2" fill="#34C759"/>
  <circle cx="15.8" cy="12" r="1.2" fill="#FF9F0A"/>
  <path d="M10.6 15.4C10.6 14.2954 11.4954 13.4 12.6 13.4H15.1C15.9284 13.4 16.6 14.0716 16.6 14.9V14.9C16.6 16.6121 15.2121 18 13.5 18H12.2C11.3163 18 10.6 17.2837 10.6 16.4V15.4Z" fill="#5E5CE6"/>
</svg>
